<svg viewBox="0 0 100 100" fill="none" xmlns="http://www.w3.org/2000/svg">
  <!-- Fox face base -->
  <path d="M50 85C70 85 82 70 82 52C82 34 70 22 50 22C30 22 18 34 18 52C18 70 30 85 50 85Z" fill="url(#foxGradient)" />
  <!-- Left ear -->
  <path d="M18 52L8 15L32 35L18 52Z" fill="url(#earGradient)" />
  <!-- Right ear -->
  <path d="M82 52L92 15L68 35L82 52Z" fill="url(#earGradient)" />
  <!-- Inner left ear -->
  <path d="M16 42L12 22L28 36L16 42Z" fill="#FFF5EB" />
  <!-- Inner right ear -->
  <path d="M84 42L88 22L72 36L84 42Z" fill="#FFF5EB" />
  <!-- White face patch -->
  <path d="M50 82C62 82 70 72 70 60C70 55 50 42 50 42C50 42 30 55 30 60C30 72 38 82 50 82Z" fill="#FFF8F0" />
  <!-- Nose -->
  <ellipse cx="50" cy="62" rx="6" ry="5" fill="#2D1B0E" />
  <!-- Left eye -->
  <ellipse cx="38" cy="48" rx="5" ry="6" fill="#2D1B0E" />
  <ellipse cx="39" cy="47" rx="2" ry="2.5" fill="#FFFFFF" />
  <!-- Right eye -->
  <ellipse cx="62" cy="48" rx="5" ry="6" fill="#2D1B0E" />
  <ellipse cx="63" cy="47" rx="2" ry="2.5" fill="#FFFFFF" />
  <!-- Mouth -->
  <path d="M50 62V68M50 68C47 71 44 72 44 72M50 68C53 71 56 72 56 72" stroke="#2D1B0E" stroke-width="2" stroke-linecap="round" />
  <defs>
    <linearGradient id="foxGradient" x1="50" y1="22" x2="50" y2="85" gradientUnits="userSpaceOnUse">
      <stop stop-color="#FF8C42" />
      <stop offset="1" stop-color="#E85D04" />
    </linearGradient>
    <linearGradient id="earGradient" x1="50" y1="15" x2="50" y2="52" gradientUnits="userSpaceOnUse">
      <stop stop-color="#FF6D00" />
      <stop offset="1" stop-color="#E85D04" />
    </linearGradient>
  </defs>
</svg>
